<svg width="186" height="38" viewBox="0 0 186 38" fill="none" xmlns="http://www.w3.org/2000/svg">
<path d="M43.6621 17.8976C43.6621 15.3794 45.5828 13.5801 48.1718 13.5801C49.6083 13.5801 50.8076 14.1045 51.5884 15.059L50.3548 16.2052C49.7958 15.5614 49.0962 15.2254 48.2655 15.2254C46.7102 15.2254 45.6079 16.3244 45.6079 17.8976C45.6079 19.4708 46.7102 20.5698 48.2655 20.5698C49.0962 20.5698 49.7958 20.2369 50.3548 19.5806L51.5884 20.7268C50.8046 21.6939 49.6084 22.2182 48.1593 22.2182C45.5828 22.2182 43.6621 20.4159 43.6621 17.9007V17.8976Z" fill="black"/>
<path d="M52.1797 17.8976C52.1797 15.417 54.1004 13.5801 56.7238 13.5801C59.347 13.5801 61.2678 15.4045 61.2678 17.8976C61.2678 20.3907 59.3345 22.2151 56.7238 22.2151C54.1129 22.2151 52.1797 20.3782 52.1797 17.8976ZM59.3221 17.8976C59.3221 16.3119 58.2072 15.2254 56.7238 15.2254C55.2403 15.2254 54.1253 16.3119 54.1253 17.8976C54.1253 19.4833 55.2403 20.5698 56.7238 20.5698C58.2072 20.5698 59.3221 19.4833 59.3221 17.8976Z" fill="black"/>
<path d="M70.3398 13.7227V22.0751H68.7626L64.6215 17.004V22.0751H62.7227V13.7227H64.3123L68.4409 18.7938V13.7227H70.3398Z" fill="black"/>
<path d="M74.0229 15.299H71.3652V13.7227H78.6044V15.299H75.9466V22.0751H74.0229V15.299Z" fill="black"/>
<path d="M84.9323 22.0742L83.3302 19.7474H81.5626V22.0742H79.6388V13.7217H83.2335C85.4508 13.7217 86.8406 14.8804 86.8406 16.7518C86.8406 18.0047 86.2127 18.9247 85.1322 19.3895L86.9935 22.0742H84.9292H84.9323ZM83.1272 15.2981H81.5595V18.2089H83.1272C84.3015 18.2089 84.8949 17.6593 84.8949 16.7518C84.8949 15.8444 84.3015 15.2948 83.1272 15.2948V15.2981Z" fill="black"/>
<path d="M87.8438 17.8976C87.8438 15.417 89.7644 13.5801 92.3877 13.5801C95.0111 13.5801 96.9317 15.4045 96.9317 17.8976C96.9317 20.3907 94.9986 22.2151 92.3877 22.2151C89.7769 22.2151 87.8438 20.3782 87.8438 17.8976ZM94.9861 17.8976C94.9861 16.3119 93.8712 15.2254 92.3877 15.2254C90.9043 15.2254 89.7894 16.3119 89.7894 17.8976C89.7894 19.4833 90.9043 20.5698 92.3877 20.5698C93.8712 20.5698 94.9861 19.4833 94.9861 17.8976Z" fill="black"/>
<path d="M98.373 13.7209H100.297V20.4971H104.463V22.0701H98.3761V13.7178L98.373 13.7209Z" fill="black"/>
<path d="M108.902 13.7227H112.675C115.391 13.7227 117.255 15.368 117.255 17.8989C117.255 20.4298 115.395 22.0751 112.675 22.0751H108.902V13.7227ZM112.58 20.4862C114.23 20.4862 115.31 19.4972 115.31 17.8958C115.31 16.2944 114.23 15.3052 112.58 15.3052H110.826V20.4831H112.58V20.4862Z" fill="black"/>
<path d="M125.138 20.523V22.0742H118.707V13.7217H124.984V15.2729H120.619V17.0847H124.475V18.5888H120.619V20.5198H125.14L125.138 20.523Z" fill="black"/>
<path d="M129.508 17.8976C129.508 15.3794 131.431 13.5801 134.017 13.5801C135.454 13.5801 136.653 14.1045 137.433 15.059L136.201 16.2052C135.641 15.5614 134.942 15.2254 134.11 15.2254C132.556 15.2254 131.453 16.3244 131.453 17.8976C131.453 19.4708 132.556 20.5698 134.11 20.5698C134.942 20.5698 135.641 20.2369 136.201 19.5806L137.433 20.7268C136.65 21.6939 135.454 22.2182 134.004 22.2182C131.428 22.2182 129.508 20.4159 129.508 17.9007V17.8976Z" fill="black"/>
<path d="M144.026 20.2854H140.168L139.432 22.0751H137.461L141.162 13.7227H143.06L146.774 22.0751H144.756L144.019 20.2854H144.026ZM143.42 18.819L142.101 15.6224L140.784 18.819H143.416H143.42Z" fill="black"/>
<path d="M147.648 13.7209H149.572V20.4971H153.738V22.0701H147.652V13.7178L147.648 13.7209Z" fill="black"/>
<path d="M154.82 13.7217H156.745V22.0742H154.82V13.7217Z" fill="black"/>
<path d="M158.717 13.7227H162.489C165.207 13.7227 167.071 15.368 167.071 17.8989C167.071 20.4298 165.209 22.0751 162.489 22.0751H158.717V13.7227ZM162.396 20.4862C164.045 20.4862 165.125 19.4972 165.125 17.8958C165.125 16.2944 164.045 15.3052 162.396 15.3052H160.64V20.4831H162.396V20.4862Z" fill="black"/>
<path d="M173.863 20.2844H170.006L169.269 22.0742H167.299L171 13.7217H172.898L176.612 22.0742H174.594L173.857 20.2844H173.863ZM173.258 18.818L171.939 15.6214L170.622 18.818H173.254H173.258Z" fill="black"/>
<path d="M177.488 13.7217H181.26C183.977 13.7217 185.842 15.367 185.842 17.8979C185.842 20.4288 183.981 22.0742 181.26 22.0742H177.488V13.7217ZM181.166 20.4853C182.816 20.4853 183.896 19.4962 183.896 17.8948C183.896 16.2934 182.816 15.3043 181.166 15.3043H179.412V20.4822H181.166V20.4853Z" fill="black"/>
<path d="M43.8828 30.3041C43.8828 29.1109 44.7947 28.2568 46.0189 28.2568C46.6997 28.2568 47.2681 28.5049 47.6398 28.9571L47.0559 29.5004C46.7904 29.1957 46.4594 29.0356 46.0658 29.0356C45.3288 29.0356 44.8072 29.5568 44.8072 30.3011C44.8072 31.0452 45.3288 31.5665 46.0658 31.5665C46.4594 31.5665 46.7904 31.4095 47.0559 31.0985L47.6398 31.6418C47.2681 32.1002 46.6997 32.3483 46.0158 32.3483C44.7947 32.3483 43.8859 31.4942 43.8859 30.3011L43.8828 30.3041Z" fill="#AD1519"/>
<path d="M49.2129 30.3041C49.2129 29.1266 50.1248 28.2568 51.3677 28.2568C52.6107 28.2568 53.5226 29.1203 53.5226 30.3041C53.5226 31.488 52.6076 32.3515 51.3677 32.3515C50.1279 32.3515 49.2129 31.4817 49.2129 30.3041ZM52.5982 30.3041C52.5982 29.5537 52.0704 29.0387 51.3677 29.0387C50.6651 29.0387 50.1373 29.5537 50.1373 30.3041C50.1373 31.0546 50.6651 31.5696 51.3677 31.5696C52.0704 31.5696 52.5982 31.0546 52.5982 30.3041Z" fill="#AD1519"/>
<path d="M59.08 32.2865L59.0737 29.9127L57.9151 31.8688H57.506L56.3536 29.9629V32.2865H55.4979V28.3301H56.2506L57.7245 30.7886L59.1736 28.3301H59.9232L59.9357 32.2865H59.08Z" fill="#AD1519"/>
<path d="M65.5717 29.765C65.5717 30.6473 64.9128 31.1969 63.8635 31.1969H63.0702V32.2865H62.1582V28.3301H63.8635C64.9159 28.3301 65.5717 28.8795 65.5717 29.765ZM64.6504 29.765C64.6504 29.3285 64.3693 29.0743 63.8135 29.0743H63.0702V30.4496H63.8135C64.3693 30.4496 64.6504 30.1952 64.6504 29.765Z" fill="#AD1519"/>
<path d="M69.9035 31.4339H68.0765L67.7268 32.2816H66.793L68.548 28.3252H69.4475L71.2058 32.2816H70.2501L69.9004 31.4339H69.9035ZM69.6162 30.7399L68.9916 29.2232L68.367 30.7399H69.6162Z" fill="#AD1519"/>
<path d="M75.4219 32.2865L74.6629 31.1843H73.826V32.2865H72.9141V28.3301H74.6192C75.6717 28.3301 76.3275 28.8795 76.3275 29.765C76.3275 30.3586 76.0308 30.795 75.5186 31.0148L76.4025 32.2865H75.425H75.4219ZM74.5661 29.0743H73.8229V30.4527H74.5661C75.122 30.4527 75.4031 30.1921 75.4031 29.7619C75.4031 29.3318 75.122 29.0711 74.5661 29.0711V29.0743Z" fill="#AD1519"/>
<path d="M80.927 31.4339H79.1002L78.7503 32.2816H77.8165L79.5717 28.3252H80.4711L82.2325 32.2816H81.2769L80.927 31.4339ZM80.6398 30.7399L80.0151 29.2232L79.3905 30.7399H80.6398Z" fill="#AD1519"/>
<path d="M84.5537 29.0725H83.295V28.3252H86.7242V29.0725H85.4655V32.2847H84.5537V29.0725Z" fill="#AD1519"/>
<path d="M88.502 28.3252H89.4138V32.2816H88.502V28.3252Z" fill="#AD1519"/>
<path d="M95.4012 28.3252L93.696 32.2816H92.7965L91.0977 28.3252H92.0814L93.2775 31.1512L94.4924 28.3252H95.3981H95.4012Z" fill="#AD1519"/>
<path d="M99.4855 31.4339H97.6586L97.3088 32.2816H96.375L98.1302 28.3252H99.0296L100.791 32.2816H99.8353L99.4855 31.4339ZM99.1982 30.7399L98.5736 29.2232L97.949 30.7399H99.1982Z" fill="#AD1519"/>
<path d="M102.186 31.8932L102.495 31.2025C102.826 31.4442 103.322 31.6137 103.793 31.6137C104.334 31.6137 104.553 31.4317 104.553 31.1898C104.553 30.4488 102.264 30.9575 102.264 29.488C102.264 28.816 102.804 28.2539 103.922 28.2539C104.415 28.2539 104.925 28.3733 105.289 28.6056L105.008 29.2995C104.644 29.0892 104.265 28.9887 103.918 28.9887C103.379 28.9887 103.173 29.1928 103.173 29.4408C103.173 30.1693 105.462 29.667 105.462 31.1207C105.462 31.7834 104.915 32.3485 103.791 32.3485C103.166 32.3485 102.536 32.1633 102.189 31.8901L102.186 31.8932Z" fill="#AD1519"/>
<path d="M110.256 28.3252H112.046C113.332 28.3252 114.216 29.104 114.216 30.3034C114.216 31.5029 113.332 32.2816 112.046 32.2816H110.256V28.3252ZM112 31.5312C112.78 31.5312 113.292 31.0632 113.292 30.3034C113.292 29.5436 112.78 29.0756 112 29.0756H111.165V31.528H112V31.5312Z" fill="#AD1519"/>
<path d="M119.237 31.5517V32.2865H116.189V28.3301H119.166V29.0648H117.095V29.9252H118.922V30.6379H117.095V31.5549H119.237V31.5517Z" fill="#AD1519"/>
<path d="M123.83 31.8932L124.139 31.2025C124.47 31.4442 124.966 31.6137 125.438 31.6137C125.979 31.6137 126.197 31.4317 126.197 31.1898C126.197 30.4488 123.908 30.9575 123.908 29.488C123.908 28.816 124.448 28.2539 125.567 28.2539C126.06 28.2539 126.568 28.3733 126.934 28.6056L126.653 29.2995C126.287 29.0892 125.91 28.9887 125.563 28.9887C125.022 28.9887 124.814 29.1928 124.814 29.4408C124.814 30.1693 127.103 29.667 127.103 31.1207C127.103 31.7834 126.557 32.3485 125.432 32.3485C124.808 32.3485 124.177 32.1633 123.83 31.8901V31.8932Z" fill="#AD1519"/>
<path d="M128.982 30.542V28.3252H129.895V30.5075C129.895 31.258 130.219 31.5689 130.771 31.5689C131.325 31.5689 131.649 31.258 131.649 30.5075V28.3252H132.549V30.542C132.549 31.7071 131.886 32.3507 130.765 32.3507C129.645 32.3507 128.982 31.7071 128.982 30.542Z" fill="#AD1519"/>
<path d="M138.156 29.765C138.156 30.6473 137.497 31.1969 136.448 31.1969H135.654V32.2865H134.742V28.3301H136.448C137.499 28.3301 138.156 28.8795 138.156 29.765ZM137.234 29.765C137.234 29.3285 136.953 29.0743 136.398 29.0743H135.654V30.4496H136.398C136.953 30.4496 137.234 30.1952 137.234 29.765Z" fill="#AD1519"/>
<path d="M140.098 28.3252H141.01V31.5374H142.984V32.2847H140.098V28.3283V28.3252Z" fill="#AD1519"/>
<path d="M147.825 31.5517V32.2865H144.777V28.3301H147.754V29.0648H145.683V29.9252H147.51V30.6379H145.683V31.5549H147.825V31.5517Z" fill="#AD1519"/>
<path d="M153.427 32.2865L153.421 29.9127L152.262 31.8688H151.854L150.701 29.9629V32.2865H149.846V28.3301H150.598L152.072 30.7886L153.521 28.3301H154.271L154.284 32.2865H153.427Z" fill="#AD1519"/>
<path d="M159.561 31.5517V32.2865H156.512V28.3301H159.488V29.0648H157.418V29.9252H159.245V30.6379H157.418V31.5549H159.561V31.5517Z" fill="#AD1519"/>
<path d="M165.18 28.3252V32.2816H164.433L162.472 29.8795V32.2816H161.572V28.3252H162.325L164.283 30.7273V28.3252H165.182H165.18Z" fill="#AD1519"/>
<path d="M168.223 29.0725H166.965V28.3252H170.394V29.0725H169.135V32.2847H168.223V29.0725Z" fill="#AD1519"/>
<path d="M171.875 30.3041C171.875 29.1266 172.786 28.2568 174.03 28.2568C175.273 28.2568 176.184 29.1203 176.184 30.3041C176.184 31.488 175.27 32.3515 174.03 32.3515C172.79 32.3515 171.875 31.4817 171.875 30.3041ZM175.26 30.3041C175.26 29.5537 174.732 29.0387 174.03 29.0387C173.327 29.0387 172.799 29.5537 172.799 30.3041C172.799 31.0546 173.327 31.5696 174.03 31.5696C174.732 31.5696 175.26 31.0546 175.26 30.3041Z" fill="#AD1519"/>
<path d="M177.848 31.8932L178.157 31.2025C178.488 31.4442 178.985 31.6137 179.457 31.6137C179.996 31.6137 180.215 31.4317 180.215 31.1898C180.215 30.4488 177.926 30.9575 177.926 29.488C177.926 28.816 178.467 28.2539 179.584 28.2539C180.078 28.2539 180.587 28.3733 180.953 28.6056L180.672 29.2995C180.306 29.0892 179.928 28.9887 179.582 28.9887C179.041 28.9887 178.835 29.1928 178.835 29.4408C178.835 30.1693 181.124 29.667 181.124 31.1207C181.124 31.7834 180.578 32.3485 179.453 32.3485C178.829 32.3485 178.198 32.1633 177.851 31.8901L177.848 31.8932Z" fill="#AD1519"/>
<path d="M0.40808 13.8537C-0.204017 13.1189 -0.110279 12.0262 0.617354 11.4076C1.34808 10.7922 2.43495 10.8864 3.05014 11.618C3.05645 11.6242 5.30188 14.265 7.39116 16.4598C7.45048 16.5226 7.5192 16.5917 7.59412 16.6608C7.62223 16.686 7.65034 16.7142 7.67535 16.7424C8.20634 17.2104 8.7185 17.3987 9.18064 17.3673C9.70841 17.3327 10.2644 17.0219 10.7984 16.507C10.9077 16.4034 10.9826 16.3249 11.0327 16.2746C15.7297 11.169 24.4179 0.653037 24.4428 0.624802C25.055 -0.113113 26.1481 -0.210446 26.8819 0.408098C27.6159 1.02354 27.7127 2.12255 27.0974 2.86047C27.0725 2.8887 18.4967 13.2728 13.5654 18.639C13.4123 18.8055 13.2843 18.9405 13.1843 19.0347C12.0757 20.1022 10.789 20.7555 9.41171 20.8496C8.03768 20.9438 6.65412 20.4822 5.3612 19.3236C5.32368 19.2954 5.28628 19.2639 5.24876 19.2294C5.13322 19.1226 5.01138 19.0001 4.88334 18.8652C2.80347 16.6765 0.414393 13.8662 0.40808 13.8568V13.8537Z" fill="#AD1519"/>
<path d="M32.0305 2.2981C32.6551 1.57282 33.7481 1.49431 34.4694 2.12226C35.1909 2.75034 35.269 3.84935 34.6444 4.57464L21.6745 19.7032C21.0499 20.4285 19.9568 20.507 19.2354 19.8791C18.5139 19.2511 18.4359 18.1521 19.0605 17.4267L32.0305 2.2981Z" fill="#FABD00"/>
<path d="M31.7092 13.4105C32.3307 12.6819 33.4238 12.594 34.1483 13.2189C34.8729 13.8437 34.9603 14.9428 34.3388 15.6713L25.9253 25.5718C25.3038 26.3001 24.2108 26.3881 23.4862 25.7632C22.7617 25.1384 22.6743 24.0426 23.2958 23.311L31.7092 13.4105Z" fill="#FABD00"/>
<path d="M32.9735 22.7873C33.595 22.0589 34.685 21.971 35.4126 22.5958C36.1371 23.2207 36.2245 24.3197 35.6032 25.0482C34.9504 25.8175 34.3821 26.5114 33.8137 27.2054C29.4788 32.4994 25.0129 37.9598 17.1273 38.1201C13.7482 38.189 10.6783 36.6756 8.10177 34.5656C4.45408 31.5794 1.75889 27.3404 0.684535 24.9634C0.29112 24.0873 0.681438 23.0574 1.55283 22.6617C2.42411 22.2661 3.44844 22.6586 3.84198 23.5346C4.77257 25.5977 7.11174 29.2777 10.2817 31.8714C12.2897 33.5167 14.6164 34.6973 17.0555 34.6472C23.3514 34.5184 27.3052 29.686 31.1403 24.9979C31.7774 24.2192 32.4145 23.4436 32.9735 22.7842V22.7873Z" fill="#AD1519"/>
</svg>
